<?xml version="1.0" encoding="utf-8"?>
<!-- Generator: Adobe Illustrator 23.0.1, SVG Export Plug-In . SVG Version: 6.00 Build 0)  -->
<svg version="1.1" id="Layer_1" xmlns="http://www.w3.org/2000/svg" xmlns:xlink="http://www.w3.org/1999/xlink" x="0px" y="0px"
	 viewBox="0 0 95 43" style="enable-background:new 0 0 95 43;" xml:space="preserve">
<style type="text/css">
	.st0{fill:#494AFC;}
</style>
<path class="st0" d="M76.1,19.7c-2.2-0.9-4.3-0.9-6.5-0.2c-2.1,0.6-3.4,2-4.2,4.1c-0.5,1.4-0.6,3-0.3,4.5c0.5,2.5,1.9,4.3,4.2,5.2
	c2.1,0.8,4.2,0.8,6.3,0.1c1.7-0.6,2.9-1.7,3.8-3.2c0.6-1.1,0.8-2.4,0.9-3.7c0-0.8-0.1-1.6-0.3-2.4C79.2,22,78,20.5,76.1,19.7z
	 M75.5,28.8c-0.7,1.1-1.7,1.6-3,1.5c-1.8,0-3.1-1.1-3.4-2.9c-0.1-0.9-0.1-1.7,0.1-2.4c0.5-1.4,1.4-2.2,2.9-2.3
	c1.6-0.1,2.9,0.5,3.6,1.8c0.3,0.6,0.4,1.3,0.4,2C76.1,27.3,75.9,28.1,75.5,28.8z"/>
<path class="st0" d="M58.8,19.6c-1.3-0.5-2.7-0.6-4.1-0.4c-2.6,0.4-4.4,1.8-5.4,4.2c-0.7,1.9-0.7,3.8-0.1,5.7c0.5,1.7,1.5,2.9,3,3.7
	c0.9,0.5,2,0.9,3.1,0.9c1.5,0.1,3,0.1,4.5-0.4c0.8-0.3,1.4-0.6,1.9-1.4c0.3-0.6,0.3-1.2-0.1-1.8c-0.4-0.6-0.9-0.7-1.6-0.6
	c-0.3,0-0.6,0.1-0.9,0.2c-0.9,0.4-1.9,0.5-2.9,0.4c-0.9-0.1-1.8-0.3-2.6-0.9c-0.4-0.4-0.8-0.9-0.8-1.5c0.1,0,0.2,0,0.4,0
	c2.3,0,4.6,0,6.9,0c0.2,0,0.5,0,0.7,0c1-0.1,1.5-0.7,1.7-1.7c0.1-0.7,0-1.5-0.1-2.2C61.9,21.8,60.8,20.4,58.8,19.6z M58.6,25.1
	c-1.8,0-3.7,0-5.5,0c0-0.7,0.2-1.3,0.7-1.8c0.9-1,2.6-1.2,3.8-0.6C58.3,23.2,58.7,24,58.6,25.1z"/>
<path class="st0" d="M44.9,25.9c-0.6-0.3-1.1-0.6-1.7-0.7c-0.8-0.2-1.7-0.4-2.4-0.6c-0.6-0.1-1.1-0.2-1.6-0.6
	c-0.4-0.2-0.4-0.6-0.4-1c0.1-0.4,0.4-0.6,0.7-0.6c0.1,0,0.3,0,0.4-0.1c1-0.1,1.9,0.1,2.9,0.5c0.4,0.1,0.9,0.4,1.4,0.4
	c1.1,0.1,1.9-0.5,1.9-1.6c0-0.5-0.2-0.9-0.6-1.1c-0.5-0.4-1.1-0.7-1.7-0.9c-1.4-0.4-2.7-0.6-4.2-0.4c-1.1,0.1-2.1,0.4-3,1
	c-2.3,1.5-2.1,4.5-0.9,5.9c0.6,0.7,1.4,1.2,2.4,1.5c0.9,0.3,1.8,0.5,2.7,0.8c0.5,0.1,1.1,0.4,1.5,0.6c0.7,0.4,0.6,1.3-0.1,1.7
	c-0.1,0.1-0.2,0.1-0.4,0.1c-0.8,0.1-1.7,0.1-2.4-0.1c-0.9-0.2-1.7-0.6-2.4-0.9c-0.4-0.1-0.7-0.2-1.1-0.2c-0.8,0-1.3,0.5-1.4,1.3
	c-0.1,0.5,0.1,0.9,0.3,1.3c0.4,0.6,1.1,1,1.8,1.3c1.2,0.5,2.5,0.6,3.8,0.6v0.1c0.8-0.1,1.7-0.1,2.4-0.3c0.9-0.1,1.9-0.6,2.6-1.2
	c1.1-1,1.4-2.3,1.3-3.7C46.6,27.5,46,26.5,44.9,25.9z"/>
<path class="st0" d="M94.6,30.6c-1.1-1.4-2.2-2.7-3.2-4c-0.1-0.2-0.1-0.3,0-0.5c1-1.3,2-2.5,3.1-3.8c0.6-0.6,0.5-1.9-0.2-2.5
	c-0.7-0.6-2.1-0.8-2.9,0.3c-0.5,0.7-1.1,1.4-1.7,2.1c-0.4,0.5-0.7,0.9-1.1,1.4c-0.4-0.5-0.8-0.9-1.1-1.4c-0.6-0.8-1.2-1.6-1.9-2.4
	c-0.7-0.8-1.8-0.9-2.6-0.1c-0.7,0.6-0.9,1.9-0.1,2.7c0.5,0.5,0.9,1.1,1.4,1.7c0.6,0.8,1.3,1.6,1.9,2.3c0,0.1-0.1,0.1-0.1,0.1
	c-1.1,1.4-2.3,2.8-3.4,4.2c-0.9,1-0.4,2.6,0.9,2.9c0.9,0.2,1.5-0.1,2.1-0.8c0.9-1.1,1.8-2.2,2.7-3.2c0.1-0.1,0.2-0.3,0.4-0.4
	c0.1,0.1,0.1,0.1,0.1,0.1c0.5,0.6,1.1,1.3,1.6,1.9c0.5,0.6,1,1.3,1.6,1.9c0.6,0.7,1.8,0.7,2.5,0.1C95.1,32.5,95.2,31.4,94.6,30.6z"
	/>
<path class="st0" d="M21,10.8l0.1-0.6c0-0.2-0.1-0.5-0.2-0.7c-0.1-0.2-0.4-0.3-0.6-0.4c-1.9-0.1-3.7-0.2-5.7-0.2v-2
	c0-0.1,0.1-0.2,0.1-0.2c0.2-0.2,0.7-0.3,1.4-0.2c1,0.1,1.9-0.1,2.7-0.7c1.6-1.2,1.7-3.7,1.7-4c0-0.4-0.3-0.9-0.7-0.9
	c-0.4-0.1-0.9,0.1-1.1,0.5c-0.1,0.1-0.6,1-1.7,0.6c-2.2-0.9-3.7,0.5-4.2,1.4c-0.1,0.1-0.1,0.1-0.1,0.2v0.1c0,0,0,0,0,0.1
	c-0.1,0-0.1,0.1-0.1,0.1v5C10.8,8.9,8.9,9,7,9.1c-0.2,0-0.5,0.1-0.6,0.4c-0.1,0.2-0.2,0.4-0.2,0.7l0.1,0.6c2.3-1,4.7-1.6,7.4-1.6
	S18.8,9.8,21,10.8z M14.6,4.1c0.2-0.4,0.9-0.9,1.8-0.5c0.6,0.3,1.2,0.4,1.7,0.3C18,4,17.9,4.2,17.7,4.3c-0.4,0.3-0.7,0.4-1.2,0.3
	c-0.7-0.1-1.4-0.1-1.9,0.1V4.1z"/>
<path class="st0" d="M7.7,17.1c1.7-0.1,3.4-0.2,5-0.2v1.2c-2.5,0-5,0.1-7.5,0.3c-0.2,0-0.5,0.1-0.6,0.4c-0.1,0.2-0.2,0.4-0.2,0.7
	l0.8,10.1c0.1,0.5,0.5,0.9,1,0.9c0.9-0.1,1.7-0.1,2.6-0.1c0.6-0.4,1.4-1,2-2c-1.3,0.1-2.6,0.1-3.8,0.2l-0.6-8.2
	c4.9-0.4,9.8-0.4,14.7,0l-0.6,8.1c-1.3-0.1-2.5-0.1-3.8-0.2c0.6,0.9,1.4,1.6,2,2c0.9,0.1,1.7,0.1,2.6,0.1h0.1c0.5,0,0.9-0.4,0.9-0.9
	L23,19.4c0-0.2-0.1-0.5-0.2-0.7c-0.1-0.2-0.4-0.3-0.6-0.4c-2.5-0.2-5-0.3-7.5-0.3v-1.2c1.7,0,3.4,0.1,5,0.2h0.1
	c0.5,0,0.9-0.4,0.9-0.9l0.4-5.4c-2.3-1-4.7-1.6-7.4-1.6s-5.2,0.6-7.5,1.7l0.4,5.4C6.7,16.7,7.2,17.2,7.7,17.1z M19.2,11l-0.4,4.2
	C17.1,15,15.4,15,13.6,15c-1.7,0-3.4,0.1-5.2,0.1L8.1,11C11.8,10.8,15.5,10.8,19.2,11z"/>
<path class="st0" d="M6.4,37.7c0.6-0.2,1.2-0.4,2.2-0.4c1.5,0,2.3,0.4,2.9,0.9c0.6,0.4,1,0.6,2,0.6s1.4-0.3,2-0.6
	c0.6-0.4,1.5-0.9,2.9-0.9c1,0,1.7,0.2,2.2,0.4l2.2-4.5c0.1-0.4,0.1-0.7-0.1-1c-0.2-0.3-0.6-0.4-1-0.3c-0.1,0-4.6,1.4-7.5-4.9
	c-0.1-0.4-0.5-0.6-0.9-0.6c-0.4,0-0.7,0.2-0.9,0.6c-2.7,6.2-7.1,4.9-7.3,4.9c-0.4-0.1-0.7,0-1,0.3c-0.2,0.3-0.3,0.7-0.1,1L6.4,37.7z
	 M13.5,29.1c0.5-0.1,1,0.3,1.1,0.8c0,0.1,0,0.2,0,0.3l-0.9,5.7l-0.9-5.7C12.6,29.7,13,29.2,13.5,29.1z"/>
<path class="st0" d="M27.5,38.9c-0.8,0.1-1.3,0.4-1.8,0.7c-0.6,0.4-1,0.6-2,0.6s-1.4-0.3-2-0.6c-0.6-0.4-1.5-0.9-2.9-0.9
	c-1.5,0-2.3,0.4-2.9,0.9c-0.6,0.4-1,0.6-2,0.6s-1.4-0.3-2-0.6c-0.6-0.4-1.5-0.9-2.9-0.9c-1.5,0-2.3,0.4-2.9,0.9
	c-0.6,0.4-1,0.6-2,0.6c-1,0-1.4-0.3-2.1-0.6c-0.4-0.3-1-0.6-1.8-0.7c1,1.2,2.2,2.3,3.4,3.2c0.1,0,0.2,0,0.4,0c1.5,0,2.3-0.4,2.9-0.9
	c0.6-0.4,1-0.6,2-0.6s1.4,0.3,2,0.6c0.6,0.4,1.5,0.9,2.9,0.9c1.5,0,2.3-0.4,2.9-0.9c0.6-0.4,1-0.6,2-0.6s1.4,0.3,2,0.6
	c0.6,0.4,1.5,0.9,2.9,0.9c0.1,0,0.2,0,0.4,0C25.4,41.1,26.5,40.1,27.5,38.9z"/>
</svg>
